<svg xmlns="http://www.w3.org/2000/svg" viewBox="1439 2456 70 70"><defs><style>.a{fill:#ffbd0c;}.b{fill:#2a82ef;}</style></defs><g transform="translate(1883.5 2213)"><g transform="translate(-420 286.75)"><path class="a" d="M-403.667,282.833h-18.667a1.1,1.1,0,0,1-1.167-1.167,1.1,1.1,0,0,1,1.167-1.167h18.667a1.1,1.1,0,0,1,1.167,1.167A1.169,1.169,0,0,1-403.667,282.833Z" transform="translate(423.5 -280.5)"/></g><g transform="translate(-420 292.583)"><path class="a" d="M-403.667,287.833h-18.667a1.1,1.1,0,0,1-1.167-1.167,1.1,1.1,0,0,1,1.167-1.167h18.667a1.1,1.1,0,0,1,1.167,1.167A1.169,1.169,0,0,1-403.667,287.833Z" transform="translate(423.5 -285.5)"/></g><g transform="translate(-420 298.417)"><path class="a" d="M-403.667,292.833h-18.667a1.1,1.1,0,0,1-1.167-1.167,1.1,1.1,0,0,1,1.167-1.167h18.667a1.1,1.1,0,0,1,1.167,1.167A1.169,1.169,0,0,1-403.667,292.833Z" transform="translate(423.5 -290.5)"/></g><g transform="translate(-444.5 243)"><path class="b" d="M-374.5,258.75v22.517a3.51,3.51,0,0,1-3.5,3.5h-9.1a3.51,3.51,0,0,1-3.5-3.5V269.483a1.255,1.255,0,0,1,1.167-1.167,1.255,1.255,0,0,1,1.167,1.167V281.5a1.169,1.169,0,0,0,1.167,1.167h9.1a1.169,1.169,0,0,0,1.167-1.167V258.867A1.255,1.255,0,0,0-378,257.7h-45.5a1.1,1.1,0,0,1-1.167-1.167,1.169,1.169,0,0,1,1.167-1.167h32.667v-8.75A1.255,1.255,0,0,0-392,245.45h-35a1.169,1.169,0,0,0-1.167,1.167v9.917a1.169,1.169,0,0,1-1.167,1.167H-441a1.255,1.255,0,0,0-1.167,1.167v22.517A1.169,1.169,0,0,0-441,282.55h9.1a1.169,1.169,0,0,0,1.167-1.167v-9.45a3.438,3.438,0,0,1,3.5-3.5H-397.6a3.438,3.438,0,0,1,3.5,3.5V309.5a3.438,3.438,0,0,1-3.5,3.5h-23.8a3.438,3.438,0,0,1-3.5-3.5V277.65a3.438,3.438,0,0,1,3.5-3.5h20.3a1.169,1.169,0,0,1,1.167,1.167,1.1,1.1,0,0,1-1.167,1.167h-20.3a1.169,1.169,0,0,0-1.167,1.167V309.5a1.1,1.1,0,0,0,1.167,1.167h23.8a1.169,1.169,0,0,0,1.167-1.167V271.817a1.255,1.255,0,0,0-1.167-1.167h-29.633a1.169,1.169,0,0,0-1.167,1.167v9.567a3.589,3.589,0,0,1-3.5,3.5H-441a3.51,3.51,0,0,1-3.5-3.5V258.75a3.438,3.438,0,0,1,3.5-3.5h10.5V246.5A3.51,3.51,0,0,1-427,243h35a3.589,3.589,0,0,1,3.5,3.5v8.75H-378A3.587,3.587,0,0,1-374.5,258.75Z" transform="translate(444.5 -243)"/></g><g transform="translate(-438.783 261.083)"><path class="a" d="M-437.85,260.833h-.583a1.1,1.1,0,0,1-1.167-1.167,1.1,1.1,0,0,1,1.167-1.167h.583a1.1,1.1,0,0,1,1.167,1.167A1.169,1.169,0,0,1-437.85,260.833Z" transform="translate(439.6 -258.5)"/><path class="a" d="M-426.25,260.833h-.583A1.1,1.1,0,0,1-428,259.667a1.1,1.1,0,0,1,1.167-1.167h.583a1.1,1.1,0,0,1,1.167,1.167A1.169,1.169,0,0,1-426.25,260.833Z" transform="translate(441.533 -258.5)"/></g></g></svg>