<svg xmlns="http://www.w3.org/2000/svg" viewBox="593.262 2466.3 62.738 52.7"><defs><style>.a{fill:#2a82ef;}.b{fill:#ffbd0c;font-size:15px;font-family:SegoeUI, Segoe UI;}</style></defs><g transform="translate(-46.738 808.3)"><g transform="translate(640 1658)"><path class="a" d="M-421.575,1181.4a1.394,1.394,0,0,0-1.425,1.351,1.394,1.394,0,0,0,1.425,1.351h7.624c3.634,8.513,7.2,17.094,10.83,25.674l-3.349,7.635a1.432,1.432,0,0,0,1.282,1.892h35.625a1.394,1.394,0,0,0,1.425-1.351,1.442,1.442,0,0,0-1.425-1.351H-403.05l2.423-5.473,34.77-2.635a1.519,1.519,0,0,0,1.282-1.014l4.275-17.567a1.361,1.361,0,0,0-1.354-1.622h-47.524l-2.494-5.946a1.718,1.718,0,0,0-1.283-.878h-8.621Zm13.466,9.459h44.6l-3.634,14.932-33.559,2.568Zm10.759,31.079a6.317,6.317,0,0,0-6.412,6.081,6.317,6.317,0,0,0,6.412,6.081,6.317,6.317,0,0,0,6.412-6.081A6.271,6.271,0,0,0-397.35,1221.938Zm19.95,0a6.317,6.317,0,0,0-6.412,6.081,6.317,6.317,0,0,0,6.412,6.081,6.317,6.317,0,0,0,6.413-6.081A6.271,6.271,0,0,0-377.4,1221.938Zm-19.95,2.7a3.44,3.44,0,0,1,3.563,3.378,3.44,3.44,0,0,1-3.562,3.378,3.44,3.44,0,0,1-3.562-3.378A3.44,3.44,0,0,1-397.35,1224.641Zm19.95,0a3.44,3.44,0,0,1,3.563,3.378,3.44,3.44,0,0,1-3.562,3.378,3.44,3.44,0,0,1-3.562-3.378A3.44,3.44,0,0,1-377.4,1224.641Z" transform="translate(423 -1181.4)"/></g><text class="b" transform="translate(670.114 1665.038)"><tspan x="0" y="16">W</tspan></text></g></svg>