<svg xmlns="http://www.w3.org/2000/svg" viewBox="305 2461 75 63"><defs><style>.a{fill:#2a82ef;}.b{fill:#ffbd0c;}</style></defs><g transform="translate(736 2221.2)"><path class="a" d="M-357,302.8h-73a.945.945,0,0,1-1-1v-61a.945.945,0,0,1,1-1h73a.945.945,0,0,1,1,1v61A1,1,0,0,1-357,302.8Zm-72-2h71v-59h-71Z"/><path class="b" d="M-398,275.8h-24a.945.945,0,0,1-1-1v-16a.945.945,0,0,1,1-1h24a.945.945,0,0,1,1,1v16A1,1,0,0,1-398,275.8Zm-23-2h22v-14h-22Z"/><path class="a" d="M-398,284.8h-24a.945.945,0,0,1-1-1,.945.945,0,0,1,1-1h24a.945.945,0,0,1,1,1A.945.945,0,0,1-398,284.8Z"/><path class="a" d="M-398,293.8h-24a.945.945,0,0,1-1-1,.945.945,0,0,1,1-1h24a.945.945,0,0,1,1,1A.945.945,0,0,1-398,293.8Z"/><path class="b" d="M-365,275.8h-24a.945.945,0,0,1-1-1v-16a.945.945,0,0,1,1-1h24a.945.945,0,0,1,1,1v16A1,1,0,0,1-365,275.8Zm-23-2h22v-14h-22Z"/><path class="a" d="M-365,284.8h-24a.945.945,0,0,1-1-1,.945.945,0,0,1,1-1h24a.945.945,0,0,1,1,1A.945.945,0,0,1-365,284.8Z"/><path class="a" d="M-365,293.8h-24a.945.945,0,0,1-1-1,.945.945,0,0,1,1-1h24a.945.945,0,0,1,1,1A.945.945,0,0,1-365,293.8Z"/><rect class="a" width="73" height="3" transform="translate(-430 248.8)"/><rect class="b" width="3" height="3" transform="translate(-425 243.8)"/><rect class="b" width="3" height="3" transform="translate(-419 243.8)"/><rect class="b" width="3" height="3" transform="translate(-413 243.8)"/></g></svg>