<svg xmlns="http://www.w3.org/2000/svg" viewBox="1159.721 2456 70 70"><defs><style>.a{fill:#2a82ef;}.b{fill:#ffbd0c;}</style></defs><g transform="translate(1538.721 2112.3)"><path class="a" d="M-376.433,366.193h49.7v18.919h2.567V343.7H-379v41.412h2.567Zm0-20.18h49.7V364.09h-49.7Z"/><rect class="a" width="21.467" height="2.312" transform="translate(-352.4 350.006)"/><rect class="a" width="12.833" height="2.312" transform="translate(-352.4 355.051)"/><path class="a" d="M-376.6,358.5h13.767V346.1H-376.6Zm2.567-10.09h8.633v7.778h-8.633Z" transform="translate(3.2 2.645)"/><path class="b" d="M0,0H2.567V2.312H0Z" transform="translate(-367.8 353.79)"/><path class="a" d="M-365.6,380.5h13.767V368.1H-365.6Zm2.567-10.09h8.633v7.778h-8.633Z" transform="translate(17.867 26.891)"/><path class="b" d="M0,0H2.567V2.312H0Z" transform="translate(-342.133 400.036)"/><path class="a" d="M-354.867,381.5h-4.667V365.1H-378.9v25.015h19.367v-6.306h4.667v6.306h45.733V365.1h-45.733Zm-21.7-14.084h14.233v3.994h-14.233Zm14.233,14.084h-14.233v-7.778h14.233Zm-14.233,6.306v-3.994h14.233V387.8Zm24.033-20.39H-311.7v20.6h-40.833Z" transform="translate(0.133 23.585)"/><rect class="a" width="13.767" height="2.312" transform="translate(-331.167 396.253)"/><rect class="a" width="8.867" height="2.312" transform="translate(-331.167 401.298)"/><path class="b" d="M0,0H2.567V2.312H0Z" transform="translate(-370.6 400.036)"/><path class="b" d="M-348.367,343.7l-4.433,3.994v33.634a3.787,3.787,0,0,0,1.167,2.733,4.107,4.107,0,0,0,3.033,1.051,4.716,4.716,0,0,0,3.033-1.051,3.3,3.3,0,0,0,1.167-2.733V347.694Zm1.867,37.417a2.791,2.791,0,0,1-.467,1.261,1.978,1.978,0,0,1-2.567,0,1.675,1.675,0,0,1-.467-1.261v-3.153h3.733l-.233,3.153Zm-3.5-5.255V348.535l1.867-1.682,1.867,1.682v27.327Z" transform="translate(34.933 0)"/><path class="b" d="M0,0H2.567V2.312H0Z" transform="translate(-357.3 375.652)"/><path class="b" d="M0,0H2.567V2.312H0Z" transform="translate(-352.867 375.652)"/><path class="b" d="M0,0H2.567V2.312H0Z" transform="translate(-348.433 375.652)"/></g></svg>